<?xml version="1.0" standalone="no"?>
<!DOCTYPE svg PUBLIC "-//W3C//DTD SVG 20010904//EN"
 "http://www.w3.org/TR/2001/REC-SVG-20010904/DTD/svg10.dtd">
<svg version="1.0" xmlns="http://www.w3.org/2000/svg"
 width="500.000000pt" height="500.000000pt" viewBox="0 0 500.000000 500.000000"
 preserveAspectRatio="xMidYMid meet">
<metadata>
Created by potrace 1.11, written by Peter Selinger 2001-2013
</metadata>
<g transform="translate(0.000000,500.000000) scale(0.100000,-0.100000)"
fill="#000000" stroke="none">
<path d="M2430 4804 c-8 -11 -24 -36 -34 -56 -17 -34 -36 -50 -36 -30 0 4 -4
14 -10 22 -7 12 -12 12 -29 -4 -12 -11 -21 -24 -21 -30 0 -6 -9 -22 -20 -36
-11 -14 -33 -46 -49 -71 -24 -38 -34 -47 -58 -47 -26 1 -138 -10 -138 -12 0
-1 -11 -3 -25 -6 -136 -23 -330 -73 -369 -93 -11 -7 -21 -10 -21 -7 0 10 -217
-91 -225 -105 -4 -5 -11 -7 -16 -4 -5 4 -9 2 -9 -2 0 -5 -17 -17 -37 -28 -21
-11 -42 -23 -48 -28 -5 -4 -35 -27 -66 -51 -68 -51 -199 -184 -199 -202 0 -2
-9 -15 -20 -27 -21 -21 -100 -177 -105 -207 -2 -8 -4 -15 -5 -15 -2 0 -1 1
-30 -110 -32 -123 -31 -373 2 -490 6 -22 12 -42 13 -45 4 -19 21 -63 41 -107
13 -28 24 -54 24 -58 0 -3 20 -36 45 -73 48 -73 100 -132 116 -132 6 0 7 -4 4
-10 -3 -5 -1 -10 5 -10 16 0 8 -19 -37 -87 -20 -32 -37 -60 -38 -63 0 -3 -10
-20 -23 -37 -13 -18 -21 -33 -17 -33 3 0 -3 -10 -15 -22 -11 -12 -20 -25 -20
-29 0 -11 -103 -184 -112 -187 -4 -2 -8 -10 -8 -18 0 -8 -5 -20 -10 -27 -21
-24 -60 -89 -92 -150 -18 -34 -36 -64 -39 -67 -4 -3 -21 -30 -38 -60 -40 -69
-50 -85 -82 -135 -43 -66 -75 -132 -55 -116 9 7 24 11 35 8 17 -4 75 52 147
142 95 120 413 432 573 562 151 123 133 114 183 86 99 -55 347 -132 493 -153
22 -4 41 -7 43 -9 1 -1 4 -32 7 -69 5 -84 18 -129 66 -230 34 -69 161 -195
230 -228 164 -79 377 -71 518 19 75 48 172 151 201 213 26 55 35 62 38 28 1
-13 8 -54 15 -93 17 -93 8 -157 -37 -245 -20 -40 -36 -76 -36 -80 0 -11 73 -4
99 9 12 7 25 11 27 9 2 -3 -8 -40 -22 -84 -26 -81 -30 -92 -34 -109 -1 -5 -7
-21 -12 -35 -5 -14 -11 -32 -13 -40 -6 -26 -53 -175 -140 -440 -73 -220 -115
-362 -115 -384 0 -3 65 -6 144 -6 135 0 144 1 149 20 4 14 14 20 34 20 27 0
29 4 68 120 l39 121 119 -3 119 -3 35 -110 c19 -60 39 -122 45 -137 l10 -28
149 0 c142 0 149 1 149 20 0 15 7 20 28 21 56 2 67 4 70 14 1 6 -20 73 -47
150 -159 444 -155 432 -136 452 27 26 79 111 104 168 12 28 26 59 31 70 15 33
49 140 55 176 4 19 10 57 15 84 9 52 5 316 -5 372 -12 66 -65 237 -84 274 -36
69 4 44 60 -37 16 -24 32 -44 35 -44 7 0 -16 41 -51 90 -18 25 -46 68 -61 96
-36 65 -77 133 -123 204 -20 30 -36 57 -36 60 0 3 -10 19 -21 35 -12 17 -29
44 -38 60 -9 17 -28 48 -41 70 -14 22 -27 48 -31 58 -3 9 -10 17 -15 17 -5 0
-9 4 -9 9 0 8 -32 63 -127 216 -16 26 -107 175 -146 240 -7 11 -15 22 -18 25
-12 10 -40 72 -35 77 3 3 22 -5 43 -18 45 -28 69 -26 145 12 l58 29 51 -26
c63 -31 76 -24 62 35 -12 45 -3 70 41 118 33 35 33 53 1 54 -28 2 -29 2 -67
12 -37 10 -35 21 7 47 19 12 35 25 35 30 0 4 15 24 33 43 17 20 48 55 67 79
19 24 52 61 72 83 l37 41 -26 20 c-15 10 -31 24 -37 29 -42 40 -222 162 -244
165 -4 1 -14 7 -22 14 -22 19 -144 79 -232 114 -71 28 -223 71 -308 86 -19 3
-45 8 -56 10 -21 4 -57 10 -126 21 -18 3 -59 7 -92 9 -32 3 -59 6 -60 8 -34
47 -136 211 -136 218 0 6 -4 10 -9 10 -5 0 -11 7 -13 16 -3 14 -5 14 -18 -2z
m345 -1808 c146 -22 139 -21 195 -36 95 -24 199 -65 304 -119 143 -73 157 -82
228 -140 29 -24 30 -25 9 -33 -24 -8 -78 0 -87 13 -3 5 -14 9 -25 9 -10 0 -19
4 -19 8 0 8 -64 35 -90 38 -8 1 -19 3 -25 4 -5 1 -12 1 -15 0 -3 -1 -16 -3
-30 -4 -65 -7 -79 -21 -85 -90 -2 -17 -5 -38 -7 -46 -2 -8 -8 -30 -12 -47 -4
-18 -11 -33 -15 -33 -4 0 -14 -12 -21 -27 l-12 -28 -33 68 c-104 211 -277 322
-500 320 -146 -2 -289 -62 -369 -156 -75 -88 -84 -100 -106 -144 -22 -44 -22
-44 -37 -23 -11 16 -13 33 -7 68 12 67 7 94 -21 118 -19 17 -33 21 -72 18 -93
-7 -132 -12 -144 -20 -8 -5 -9 -3 -4 7 7 12 6 12 -7 1 -10 -8 -19 -9 -22 -3
-3 5 6 19 20 30 41 32 263 137 349 165 28 9 59 20 70 25 19 9 109 34 130 37 6
0 12 2 15 3 6 3 25 6 110 16 36 4 66 8 67 9 5 4 232 -2 268 -8z m585 -1742 c0
-8 11 -47 25 -86 37 -106 37 -105 -44 -106 l-70 -1 13 42 c33 106 60 176 68
171 4 -3 8 -12 8 -20z"/>
<path d="M1122 1920 c-12 -22 -27 -40 -32 -40 -6 0 -10 -5 -10 -11 0 -12 -53
-90 -87 -129 -13 -13 -23 -28 -23 -32 0 -3 -6 -13 -13 -20 -6 -7 -21 -30 -32
-50 -11 -21 -23 -38 -28 -38 -4 0 -5 -4 -2 -10 3 -5 3 -10 -2 -10 -4 0 -19
-17 -33 -38 -14 -20 -27 -39 -30 -42 -5 -5 -97 -141 -113 -167 -10 -16 44 -74
138 -150 39 -32 72 -59 75 -63 37 -41 226 -162 297 -190 32 -13 82 -34 111
-47 29 -13 61 -21 71 -18 27 8 20 65 -13 114 -16 23 -27 43 -25 45 7 8 144
-55 167 -76 15 -15 22 -33 22 -58 0 -64 -47 -100 -132 -100 -57 0 -163 20
-215 42 -16 6 -46 12 -69 14 l-41 3 -26 -93 c-38 -130 -38 -131 30 -156 79
-29 228 -50 325 -45 141 8 262 57 390 159 44 35 61 57 76 98 25 64 24 177 -1
223 -20 35 -96 115 -110 115 -6 0 -18 6 -26 14 -9 7 -72 34 -141 60 -69 26
-140 55 -158 64 -50 25 -82 66 -76 99 6 36 57 80 99 85 41 5 155 -15 214 -36
38 -14 46 -14 53 -3 4 9 17 12 32 10 28 -6 32 0 60 93 8 27 18 57 21 66 5 12
-12 22 -72 46 -86 34 -175 52 -271 56 -35 1 -67 6 -70 12 -12 17 -91 74 -101
74 -6 0 -11 5 -11 10 0 6 -4 10 -10 10 -12 0 -46 28 -120 98 -30 28 -57 52
-60 52 -3 0 -15 -18 -28 -40z"/>
<path d="M1954 1681 c-2 -2 -4 -55 -4 -118 l0 -113 150 0 150 0 2 -437 3 -438
138 -3 c131 -2 139 -1 144 17 3 14 15 21 37 23 l31 3 1 405 c1 223 2 411 3
418 1 8 26 12 89 12 49 0 122 3 163 6 l74 7 0 96 0 96 -36 0 c-20 1 -45 7 -54
15 -14 12 -91 14 -452 15 -239 0 -436 -2 -439 -4z"/>
<path d="M1928 743 c-10 -2 -18 -11 -18 -18 0 -15 12 -19 75 -30 62 -11 224
-15 230 -5 5 8 -23 36 -34 34 -7 -2 -7 -2 -67 15 -40 11 -151 13 -186 4z"/>
<path d="M1166 374 c-17 -17 -19 -25 -16 -64 3 -35 16 -48 56 -56 56 -10 66
-43 18 -58 -14 -4 -26 0 -39 14 -14 15 -21 17 -32 9 -34 -29 8 -73 70 -72 48
1 77 29 77 73 0 30 -28 71 -51 76 -8 2 -23 5 -34 7 -23 4 -34 36 -13 38 23 2
43 -3 49 -12 8 -13 39 0 39 16 0 39 -92 61 -124 29z"/>
<path d="M1995 381 c-3 -2 -5 -13 -5 -23 0 -16 22 -24 53 -19 4 0 7 -42 7 -95
0 -93 1 -95 22 -92 20 3 22 8 20 73 -2 83 4 116 21 114 28 -3 37 2 37 24 0 22
-3 23 -75 23 -42 0 -78 -2 -80 -5z"/>
<path d="M2557 383 c-13 -12 -7 -44 9 -50 20 -7 33 12 27 38 -5 19 -24 25 -36
12z"/>
<path d="M3026 381 c-7 -11 -86 -221 -86 -227 0 -2 11 -4 25 -4 15 0 25 6 25
15 0 16 27 31 50 29 8 -1 23 -2 32 -3 9 0 20 -10 23 -21 4 -13 15 -20 31 -20
13 0 24 1 24 3 0 1 -20 54 -43 117 -41 109 -63 140 -81 111z m36 -115 c2 -13
-4 -20 -19 -22 -19 -3 -21 0 -17 23 9 51 26 51 36 -1z"/>
<path d="M3534 384 c-6 -3 -8 -18 -6 -34 4 -27 1 -30 -21 -30 -47 0 -77 -17
-77 -45 0 -14 -4 -25 -9 -25 -5 0 -8 13 -7 30 2 33 -5 37 -69 39 -45 1 -57 -5
-72 -34 -28 -55 6 -136 58 -136 13 0 36 1 52 1 28 0 29 2 29 58 1 31 10 37 14
8 7 -48 37 -77 69 -67 6 2 25 3 43 3 l32 -1 -2 116 c-3 111 -8 128 -34 117z
m-176 -116 c28 -28 3 -85 -32 -72 -19 7 -24 34 -11 72 6 15 27 16 43 0z m148
4 c20 -13 23 -50 4 -67 -16 -15 -19 -15 -34 0 -19 19 -21 46 -4 63 14 14 19
14 34 4z"/>
<path d="M1342 358 c-7 -7 -12 -16 -12 -21 0 -5 -7 -15 -15 -24 -14 -14 -14
-17 0 -32 8 -10 15 -35 15 -57 0 -21 7 -47 14 -56 13 -18 51 -24 59 -10 7 11
-8 44 -18 40 -6 -2 -11 16 -13 38 -3 35 0 42 18 47 13 3 18 10 14 21 -3 8 -11
14 -17 13 -6 -1 -13 7 -15 18 -6 29 -16 37 -30 23z"/>
<path d="M2796 310 c-27 -13 -31 -21 -33 -58 -4 -55 10 -80 53 -98 36 -15 45
-40 18 -51 -10 -4 -22 1 -29 10 -7 10 -20 17 -29 17 -26 0 -16 -39 15 -62 21
-16 30 -17 54 -8 16 6 33 17 37 23 11 18 10 85 -2 92 -8 5 -7 11 1 21 10 12
12 43 6 104 -2 20 -8 25 -31 25 -16 1 -43 -6 -60 -15z m38 -36 c22 -8 21 -60
-1 -68 -19 -8 -33 9 -33 40 0 31 9 38 34 28z"/>
<path d="M1430 298 c-24 -26 -26 -77 -5 -118 15 -28 18 -30 75 -28 l60 2 0 81
0 81 -55 2 c-45 1 -58 -2 -75 -20z m85 -49 c7 -32 -3 -51 -30 -55 -31 -5 -43
58 -14 77 25 16 37 10 44 -22z"/>
<path d="M1579 316 c-1 0 -2 -36 -3 -79 -2 -59 1 -80 11 -84 21 -8 26 2 29 58
2 49 17 74 36 62 5 -2 15 1 23 7 13 11 15 4 14 -46 -1 -83 -1 -84 21 -84 18 0
20 7 20 54 0 50 17 86 34 69 3 -4 12 2 20 12 13 18 16 13 36 -54 18 -59 21
-80 12 -107 -10 -32 -9 -34 14 -34 22 0 26 5 39 60 1 3 5 12 8 20 27 65 47
131 42 140 -14 22 -34 7 -51 -37 l-18 -48 -11 35 c-5 19 -13 40 -17 46 -4 6
-55 11 -132 11 -70 0 -127 0 -127 -1z"/>
<path d="M2134 235 c1 -73 3 -80 21 -80 17 0 20 7 20 53 0 53 14 76 40 66 14
-6 28 23 20 37 -3 4 -27 8 -54 7 l-47 -2 0 -81z"/>
<path d="M2263 308 c-30 -41 -35 -88 -12 -129 14 -27 43 -36 92 -30 l42 6 0
68 c0 37 3 67 8 67 7 0 10 -38 7 -102 -1 -32 2 -38 18 -38 13 0 19 7 19 23 1
80 4 95 20 101 26 10 35 -8 36 -69 1 -50 3 -56 21 -53 17 2 21 11 21 48 2 61
-12 108 -33 114 -30 8 -102 4 -102 -7 0 -6 -4 -6 -12 0 -19 15 -114 15 -125 1z
m78 -59 c8 -32 -1 -49 -27 -53 -23 -4 -34 10 -34 46 0 45 49 50 61 7z"/>
<path d="M2553 235 c0 -77 1 -85 18 -85 21 0 21 0 21 80 0 86 -1 90 -20 90
-16 0 -18 -10 -19 -85z"/>
<path d="M2610 234 c0 -77 2 -84 20 -84 17 0 20 7 20 49 0 59 7 81 26 81 20 0
30 -32 29 -86 -1 -40 1 -45 19 -42 18 3 21 10 22 58 1 55 -9 89 -30 102 -5 4
-32 7 -58 6 l-48 0 0 -84z"/>
<path d="M3155 287 c-42 -79 25 -173 93 -129 21 14 22 16 6 33 -11 13 -21 16
-28 10 -25 -21 -53 27 -36 60 8 14 17 18 34 13 27 -6 39 6 30 30 -4 11 -19 16
-43 16 -33 0 -40 -5 -56 -33z"/>
<path d="M3603 294 c-21 -32 -20 -86 1 -119 18 -28 68 -34 97 -12 24 18 2 47
-26 36 -29 -11 -32 -11 -39 6 -3 9 -1 15 7 14 6 -1 28 -1 48 0 35 1 36 2 33
33 -5 44 -30 68 -70 68 -25 0 -38 -7 -51 -26z m67 -19 c11 -13 8 -15 -15 -15
-23 0 -26 2 -15 15 7 8 14 15 15 15 1 0 8 -7 15 -15z"/>
<path d="M3736 239 c1 -85 4 -95 29 -85 11 4 15 18 14 56 -1 28 3 56 9 62 20
20 34 -6 34 -66 1 -48 4 -56 19 -56 16 0 19 8 19 49 0 61 7 81 26 74 10 -4 14
-22 14 -64 0 -52 2 -59 20 -59 20 0 22 5 22 70 0 93 -2 94 -114 97 l-93 2 1
-80z"/>
<path d="M3962 283 c5 -21 16 -58 24 -82 12 -36 13 -50 3 -74 -10 -23 -10 -30
2 -37 23 -15 37 7 68 110 35 112 36 120 16 120 -16 0 -33 -27 -38 -59 -5 -34
-15 -34 -22 -2 -7 35 -29 61 -50 61 -11 0 -11 -8 -3 -37z"/>
</g>
</svg>
